<?xml version="1.0" standalone="no"?>
<!DOCTYPE svg PUBLIC "-//W3C//DTD SVG 20010904//EN"
 "http://www.w3.org/TR/2001/REC-SVG-20010904/DTD/svg10.dtd">
<svg version="1.0" xmlns="http://www.w3.org/2000/svg"
 width="910.000000pt" height="910.000000pt" viewBox="0 0 910.000000 910.000000"
 preserveAspectRatio="xMidYMid meet">
<metadata>
Created by potrace 1.11, written by Peter Selinger 2001-2013
</metadata>
<g transform="translate(0.000000,910.000000) scale(0.100000,-0.100000)"
fill="#000000" stroke="none">
<path d="M4408 6665 c-2 -2 -50 -6 -108 -9 -121 -8 -188 -14 -227 -20 -16 -3
-50 -7 -78 -11 -27 -3 -61 -7 -75 -10 -14 -3 -77 -14 -140 -25 -430 -77 -936
-262 -1339 -492 -933 -531 -1635 -1380 -1986 -2399 -59 -172 -141 -487 -161
-615 -6 -47 -12 -82 -18 -109 -4 -21 -24 -172 -31 -240 -24 -221 -25 -740 -1
-885 3 -14 7 -52 11 -85 9 -84 13 -115 36 -240 24 -135 37 -198 63 -300 2 -5
6 -23 10 -40 39 -152 142 -461 190 -569 8 -17 33 -74 56 -126 54 -123 188
-380 210 -404 5 -4 30 3 57 17 l48 25 3684 0 3683 -1 34 -24 c19 -12 39 -23
43 -23 21 0 181 312 270 523 112 269 226 649 267 892 1 11 7 47 13 80 5 33 13
83 16 110 3 28 8 64 10 80 34 240 40 785 11 955 -3 14 -7 50 -10 80 -26 261
-99 589 -196 880 -32 96 -66 193 -76 215 -10 22 -19 42 -19 45 -22 67 -144
324 -215 452 -111 199 -194 328 -334 518 -40 54 -116 150 -126 160 -3 3 -16
18 -28 34 -41 53 -136 158 -237 260 -471 474 -1017 823 -1647 1050 -184 66
-468 144 -628 172 -14 2 -36 7 -50 9 -69 14 -264 42 -345 49 -33 3 -89 8 -125
12 -61 6 -507 13 -512 9z"/>
</g>
</svg>
